# xmcd
#
# Track frame offsets: 
#        150
#        10876
#        22623
#        35416
#        46201
#        61543
#        72585
#        82782
#        97665
#        107004
#        120067
#
# Disc length: 1767 seconds
#
# Revision: 0
# Processed by: cddbd v1.5.2PL0 Copyright (c) Steve Scherf et al.
# Submitted via: ExactAudioCopy v1.3
#
DISCID=6906e50b
DTITLE=Loretta Lynn and Ernest Tubb - If We Put Our Heads Together
DYEAR=1969
DGENRE=Country
TTITLE0=Who's Gonna Take The Garbage Out
TTITLE1=Holding On To Nothing
TTITLE2=Somewhere Between
TTITLE3=I Chased You Till You Caught Me
TTITLE4=Let's Wait A Little Longer
TTITLE5=Won't You Come Home (And Talk To A Stranger)
TTITLE6=Let The World Keep On A Turnin'
TTITLE7=If We Put Our Heads Together (Our Hearts Will Tell Us What To 
TTITLE7=Do)
TTITLE8=That Odd Couple
TTITLE9=Touch And Go
TTITLE10=I Won't Cheat Again On You (If You Won't Cheat On Me)
EXTD=
EXTT0=
EXTT1=
EXTT2=
EXTT3=
EXTT4=
EXTT5=
EXTT6=
EXTT7=
EXTT8=
EXTT9=
EXTT10=
PLAYORDER=
